<svg width="24" height="24" xmlns="http://www.w3.org/2000/svg">
 <mask y="2" x="2" width="16" maskUnits="userSpaceOnUse" height="19" id="a">
  <path id="svg_1" fill="#ffd56c" d="m16.1438,9.84735c-1.6048,2.04975 -3.9088,3.08265 -5.7044,2.70125l-6.14926,7.8813c-0.44491,0.572 -1.22351,0.6356 -1.79554,0.1907c-0.57203,-0.445 -0.63558,-1.2235 -0.25423,-1.7956l6.1493,-7.8177c-0.82626,-1.60486 -0.38135,-4.09954 1.28707,-6.21286c2.04976,-2.57413 5.11646,-3.52751 6.91196,-2.19278c1.7956,1.33473 1.5413,4.6239 -0.4449,7.24569z"/>
 </mask>

 <g>
  <title>Layer 1</title>
  <path fill-opacity="0.45" id="svg_2" fill="#aaa9a5" d="m16.5888,2.60168s7.6906,5.25949 4.7351,12.63232c-2.9555,7.3728 -8.7235,5.323 -6.5307,3.1461s-2.5582,-3.591 -5.57726,-6.4194l7.37286,-9.35902z"/>
  <path fill-opacity="0.91" id="svg_3" fill="#a4a4a5" d="m16.1438,9.84735c-1.6048,2.04975 -3.9088,3.08265 -5.7044,2.70125l-6.14926,7.8813c-0.44491,0.572 -1.22351,0.6356 -1.79554,0.1907c-0.57203,-0.445 -0.63558,-1.2235 -0.25423,-1.7956l6.1493,-7.8177c-0.82626,-1.60486 -0.38135,-4.09954 1.28707,-6.21286c2.04976,-2.57413 5.11646,-3.52751 6.91196,-2.19278c1.7956,1.33473 1.5413,4.6239 -0.4449,7.24569z"/>
  <g id="svg_4" mask="url(#a)" fill="#fff">
   <path id="svg_5" d="m13.0389,-1.26782l0.7405,0.09754l-3.1567,23.96118l-0.74043,-0.0976l3.15663,-23.96112z"/>
   <path id="svg_6" d="m14.2822,-1.51801l1.6226,0.21377l-3.1566,23.96114l-1.6226,-0.2137l3.1566,-23.96121z"/>
  </g>
 </g>
</svg>