<svg width="24" height="24" xmlns="http://www.w3.org/2000/svg">

 <g>
  <title>Layer 1</title>
  <path fill-opacity="0.47" id="svg_1" fill="#565656" d="m16.5822,2.63812s7.6721,5.23623 4.7567,12.58868c-2.9154,7.3525 -8.7142,5.313 -6.5469,3.1648c2.1674,-2.1482 -2.5573,-3.6059 -5.58143,-6.3935l7.36523,-9.35998"/>
  <path fill-opacity="0.55" id="svg_2" fill="#898989" d="m16.1155,9.83717c-1.6175,2.05873 -3.9,3.08803 -5.6646,2.71723l-6.15684,7.8447c-0.10362,0.1324 -0.23231,0.243 -0.37871,0.3256c-0.1464,0.0825 -0.30764,0.1354 -0.47451,0.1556c-0.16686,0.0202 -0.33606,0.0073 -0.49793,-0.038c-0.16187,-0.0452 -0.31322,-0.122 -0.44541,-0.2258c-0.13374,-0.1032 -0.2457,-0.2319 -0.32942,-0.3786s-0.13754,-0.3086 -0.15834,-0.4762c-0.02081,-0.1677 -0.00819,-0.3378 0.03712,-0.5005s0.12242,-0.3149 0.22687,-0.4476l6.12492,-7.832c-0.81197,-1.62394 -0.36443,-4.11099 1.27869,-6.18886c2.03946,-2.58295 5.11476,-3.54836 6.89856,-2.15459c1.7837,1.39377 1.5664,4.61607 -0.4604,7.19902z"/>
 </g>
</svg>