<svg width="24" height="24" xmlns="http://www.w3.org/2000/svg">

 <g>
  <title>Layer 1</title>
  <circle id="svg_1" r="6" fill="none" cy="12" cx="15"/>
  <path fill-opacity="0.93" id="svg_2" fill-rule="evenodd" fill="#4c515b" d="m2.20812,10.124c0.42636,0 0.7816,-0.34817 0.7816,-0.76611c0,-0.41793 -0.35524,-0.76615 -0.7816,-0.76615l-0.42635,0c-0.42636,0 -0.78177,0.34822 -0.78177,0.76615c0,0.41794 0.35541,0.76611 0.78177,0.76611l0.42635,0zm16.13038,9.2643c4.0504,-1.811 5.7558,-6.4083 3.9083,-10.23937c-1.2791,-2.71657 -3.9793,-4.31859 -6.8217,-4.45801l-8.02965,0c-0.71065,0 -1.20812,0.55735 -1.20812,1.18425c0,0.69645 0.56859,1.18409 1.20812,1.18409l2.06067,0c0.42635,0 0.78158,0.34822 0.78158,0.76616c0,0.41793 -0.35523,0.76632 -0.78158,0.76632l-5.04517,0c-0.42635,0 -0.78176,0.34822 -0.78176,0.76615c0,0.41794 0.35541,0.76611 0.78176,0.76611l3.62404,0c0.42635,0 0.78159,0.3484 0.78159,0.7664c0,0.4179 -0.35524,0.7661 -0.78159,0.7661l-2.27402,0c-0.42636,0 -0.7816,0.3482 -0.7816,0.7662c0,0.4179 0.35524,0.7663 0.7816,0.7663l1.56336,0c0.07112,0.8359 0.2843,1.6717 0.63954,2.4379c1.77654,3.8311 6.46643,5.5028 10.37463,3.7614zm-7.2725,-5.1884c-1.0318,-2.2025 -0.0466,-4.80794 2.2003,-5.81933c2.2469,-1.0114 4.9049,-0.04564 5.9366,2.15683c1.0318,2.2025 0.0468,4.8079 -2.2003,5.8193c-2.2469,1.0114 -4.9048,0.0457 -5.9366,-2.1568z" clip-rule="evenodd"/>
  <path fill-opacity="0.38" id="svg_3" fill="none" d="m16.8142,9.86662l1.4212,2.36838c0.0711,0.1392 0.0711,0.2089 0,0.3482l-1.4212,2.3683c-0.0711,0.1393 -0.2131,0.1393 -0.2842,0.1393l-2.7714,0c-0.142,0 -0.2131,-0.0697 -0.2841,-0.1393l-1.4213,-2.3683c-0.0709,-0.1393 -0.0709,-0.209 0,-0.3482l1.4213,-2.36838c0.071,-0.13926 0.2132,-0.13926 0.2841,-0.13926l2.7714,0c0.1422,-0.06971 0.2131,0 0.2842,0.13926z"/>
 </g>
</svg>